<?xml version="1.0" encoding="iso-8859-1"?>
<!-- Generator: Adobe Illustrator 16.0.0, SVG Export Plug-In . SVG Version: 6.00 Build 0)  -->
<!DOCTYPE svg PUBLIC "-//W3C//DTD SVG 1.1//EN" "http://www.w3.org/Graphics/SVG/1.1/DTD/svg11.dtd">
<svg version="1.1" id="Capa_1" xmlns="http://www.w3.org/2000/svg" xmlns:xlink="http://www.w3.org/1999/xlink" x="0px" y="0px"
	 width="449.219px" height="449.218px" viewBox="0 0 449.219 449.218" style="enable-background:new 0 0 449.219 449.218;"
	 xml:space="preserve">
<g>
	<g>
		<path d="M355.922,318.846c1.662,0,3.013,1.345,3.013,3.002c0,1.67-1.351,3.015-3.013,3.015c-1.659,0-3.01-1.345-3.01-3.015
			C352.912,320.191,354.263,318.846,355.922,318.846z"/>
		<path d="M328.136,246.73c1.664,0,3.007,1.345,3.007,3.004c0,1.668-1.343,3.013-3.007,3.013c-1.663,0-3.008-1.345-3.008-3.013
			C325.128,248.075,326.473,246.73,328.136,246.73z"/>
		<path d="M331.091,228.514c-5.091,0-9.915,2.343-13.219,6.415c-0.119,0.158-0.268,0.316-0.418,0.451l-32.856,32.189
			c-0.179,0.194-0.358,0.384-0.562,0.558c-3.868,3.285-6.072,7.999-6.072,12.934c0,9.429,7.668,17.093,17.085,17.093
			c5.166,0,10.021-2.384,13.33-6.542c0.119-0.166,0.277-0.34,0.429-0.482l31.072-30.667c0.288-0.325,0.587-0.593,0.96-0.84
			c4.594-3.201,7.36-8.445,7.36-14.025C348.184,236.173,340.52,228.514,331.091,228.514z M300.351,284.081
			c-4.272,0-7.738-3.472-7.738-7.733s3.477-7.733,7.738-7.733s7.738,3.472,7.738,7.733S304.618,284.081,300.351,284.081z
			 M328.136,257.47c-4.268,0-7.731-3.475-7.731-7.736c0-4.254,3.475-7.729,7.731-7.729c4.258,0,7.732,3.475,7.732,7.729
			C335.868,254.005,332.404,257.47,328.136,257.47z"/>
		<path d="M300.351,273.33c1.665,0,3.013,1.348,3.013,3.007c0,1.665-1.348,3.013-3.013,3.013c-1.659,0-3.013-1.348-3.013-3.013
			C297.338,274.677,298.691,273.33,300.351,273.33z"/>
		<rect x="164.451" y="222.011" width="68.455" height="18.221"/>
		<path d="M386.651,274.028c-5.093,0-9.917,2.34-13.208,6.414c-0.127,0.157-0.272,0.314-0.42,0.457l-32.872,32.185
			c-0.162,0.199-0.346,0.366-0.556,0.556c-3.869,3.296-6.085,8.011-6.085,12.935c0,9.428,7.669,17.093,17.088,17.093
			c5.165,0,10.016-2.384,13.322-6.536c0.137-0.174,0.294-0.33,0.441-0.488l31.044-30.641c0.295-0.319,0.609-0.613,0.977-0.867
			c4.609-3.202,7.37-8.45,7.37-14.026C403.742,281.692,396.078,274.028,386.651,274.028z M355.922,329.597
			c-4.269,0-7.733-3.475-7.733-7.749c0-4.262,3.47-7.727,7.733-7.727c4.262,0,7.736,3.476,7.736,7.727
			C363.658,326.112,360.194,329.597,355.922,329.597z M383.701,302.994c-4.264,0-7.733-3.471-7.733-7.728s3.47-7.737,7.733-7.737
			c4.262,0,7.736,3.47,7.736,7.737C391.438,299.535,387.974,302.994,383.701,302.994z"/>
		<path d="M383.701,292.243c1.664,0,3.013,1.349,3.013,3.013c0,1.659-1.349,3.013-3.013,3.013c-1.659,0-3.008-1.354-3.008-3.013
			C380.693,293.591,382.042,292.243,383.701,292.243z"/>
		<path d="M337.433,180.517h-72.494v-35.413c0-2.966-2.404-5.375-5.375-5.375h-32.757V98.993c0-0.627-0.157-1.212-0.356-1.774
			c0.199-0.557,0.356-1.145,0.356-1.772c0-21.809,17.745-39.554,39.539-39.554c21.827,0,39.545,17.745,39.545,39.554
			c0,0.735,0.151,1.428,0.419,2.068c-0.268,0.64-0.419,1.333-0.419,2.071c0,27.735,22.557,50.297,50.294,50.297h80.988
			c2.971,0,5.375-2.409,5.375-5.375c0-2.968-2.404-5.375-5.375-5.375h-80.956c-21.812,0-39.549-17.74-39.549-39.547
			c0-0.737-0.138-1.431-0.41-2.071c0.272-0.64,0.41-1.333,0.41-2.068c0-27.738-22.552-50.305-50.291-50.305
			c-27.738,0-50.299,22.567-50.299,50.305c0,0.627,0.16,1.215,0.36,1.772c-0.2,0.562-0.36,1.147-0.36,1.774v40.735h-32.753
			c-2.971,0-5.376,2.41-5.376,5.375v35.413h-66.163C50.143,180.517,0,230.657,0,292.294c0,61.634,50.143,111.782,111.784,111.782
			c34.607,0,66.465-15.587,87.854-42.856h49.94c21.392,27.254,53.25,42.856,87.859,42.856c61.638,0,111.781-50.148,111.781-111.782
			C449.214,230.657,399.07,180.517,337.433,180.517z M153.217,311.813c0,2.966-2.404,5.376-5.375,5.376H123.07v24.765
			c0,2.962-2.402,5.376-5.375,5.376H81.637c-2.971,0-5.375-2.414-5.375-5.376v-24.765h-24.77c-2.971,0-5.375-2.41-5.375-5.376
			V275.75c0-2.973,2.405-5.375,5.375-5.375h24.77v-24.768c0-2.971,2.405-5.375,5.375-5.375h36.058c2.974,0,5.375,2.404,5.375,5.375
			v24.768h24.772c2.971,0,5.375,2.402,5.375,5.375V311.813z M153.7,245.597V216.63c0-2.968,2.402-5.375,5.375-5.375h79.206
			c2.972,0,5.376,2.406,5.376,5.375v28.967c0,2.971-2.404,5.375-5.376,5.375h-79.206C156.097,250.972,153.7,248.568,153.7,245.597z
			 M212.234,305.848l-17.439,17.438c-1.049,1.052-2.424,1.576-3.8,1.576c-1.375,0-2.753-0.524-3.801-1.576
			c-2.102-2.099-2.102-5.5,0-7.601l17.439-17.438c2.1-2.099,5.498-2.099,7.601,0C214.329,300.348,214.324,303.76,212.234,305.848z
			 M246.041,305.659l-17.628,17.628c-1.042,1.052-2.42,1.576-3.801,1.576c-1.375,0-2.753-0.524-3.805-1.576
			c-2.103-2.099-2.103-5.5,0-7.601l17.633-17.626c2.104-2.101,5.49-2.101,7.602,0C248.14,300.168,248.129,303.566,246.041,305.659z
			 M254.188,180.517h-65.505v-30.038h65.505V180.517L254.188,180.517z M295.038,308.91c-15.344,0-27.843-12.488-27.843-27.849
			c0-7.937,3.454-15.485,9.502-20.808c0.021-0.022,0.047-0.054,0.078-0.074l32.955-32.278c5.345-6.454,13.109-10.148,21.381-10.148
			c15.34,0,27.844,12.484,27.844,27.838c0,8.913-4.305,17.296-11.538,22.525l-30.846,30.437
			C311.217,305.141,303.384,308.91,295.038,308.91z M402.986,313.634l-30.865,30.456c-5.339,6.578-13.16,10.336-21.522,10.336
			c-15.345,0-27.839-12.483-27.839-27.837c0-7.931,3.459-15.49,9.497-20.813c0.021-0.031,0.057-0.053,0.078-0.073l32.973-32.274
			c5.339-6.456,13.102-10.157,21.364-10.157c15.344,0,27.853,12.489,27.853,27.848C414.493,300.012,410.211,308.39,402.986,313.634z
			"/>
		<path d="M112.319,275.75v-24.767H87.012v24.767c0,2.966-2.402,5.374-5.375,5.374h-24.77v25.309h24.77
			c2.974,0,5.375,2.399,5.375,5.376v24.76h25.307v-24.76c0-2.977,2.405-5.376,5.375-5.376h24.772v-25.309h-24.772
			C114.724,281.124,112.319,278.715,112.319,275.75z"/>
	</g>
</g>
<g>
</g>
<g>
</g>
<g>
</g>
<g>
</g>
<g>
</g>
<g>
</g>
<g>
</g>
<g>
</g>
<g>
</g>
<g>
</g>
<g>
</g>
<g>
</g>
<g>
</g>
<g>
</g>
<g>
</g>
</svg>
